<?xml version="1.0" encoding="UTF-8" standalone="no"?>
<svg
   id="svg2539"
   viewBox="0 0 63.000002 63.000001"
   version="1.1"
   sodipodi:docname="cvww25-snowflake.svg"
   width="63"
   height="63"
   inkscape:version="1.3 (1:1.3+202307231459+0e150ed6c4)"
   inkscape:export-filename="snowflake.png"
   inkscape:export-xdpi="129.5238"
   inkscape:export-ydpi="129.5238"
   xmlns:inkscape="http://www.inkscape.org/namespaces/inkscape"
   xmlns:sodipodi="http://sodipodi.sourceforge.net/DTD/sodipodi-0.dtd"
   xmlns="http://www.w3.org/2000/svg"
   xmlns:svg="http://www.w3.org/2000/svg">
  <sodipodi:namedview
     id="namedview1074"
     pagecolor="#505050"
     bordercolor="#eeeeee"
     borderopacity="1"
     inkscape:showpageshadow="0"
     inkscape:pageopacity="0"
     inkscape:pagecheckerboard="0"
     inkscape:deskcolor="#505050"
     showgrid="false"
     inkscape:zoom="7.4004391"
     inkscape:cx="5.0672669"
     inkscape:cy="22.97161"
     inkscape:window-width="1920"
     inkscape:window-height="1016"
     inkscape:window-x="0"
     inkscape:window-y="27"
     inkscape:window-maximized="1"
     inkscape:current-layer="svg2539" />
  <defs
     id="defs1066">
    <style
       id="style1059">&#10;      .cls-1 {&#10;        fill: url(#linear-gradient);&#10;      }&#10;&#10;      .cls-2 {&#10;        fill: #fff;&#10;        stroke: #fff;&#10;        stroke-miterlimit: 10;&#10;        stroke-width: .27px;&#10;      }&#10;    </style>
    <linearGradient
       id="linear-gradient"
       x1="520.5"
       y1="-513.44"
       x2="599.66998"
       y2="-513.44"
       gradientTransform="matrix(0.75,0,0,-0.75,-387.96,-353.64)"
       gradientUnits="userSpaceOnUse">
      <stop
         offset=".59"
         stop-color="#580f8b"
         id="stop1061" />
      <stop
         offset="1"
         stop-color="#aa43b6"
         id="stop1063" />
    </linearGradient>
  </defs>
  <g
     inkscape:groupmode="layer"
     id="layer2"
     inkscape:label="bg"
     transform="translate(-2.4051185,-0.85)"
     style="display:none">
    <rect
       style="fill:#ffffff;fill-opacity:1;stroke:#ffffff;stroke-width:0.338331;stroke-linecap:square;stroke-linejoin:bevel;stroke-opacity:1"
       id="rect3167"
       width="62.661671"
       height="62.661671"
       x="2.5742843"
       y="1.0191658" />
  </g>
  <g
     id="layer1"
     transform="translate(-0.4051185,-0.35)"
     style="fill:#0065bd;fill-opacity:1">
    <path
       id="path4513-3"
       d="m 31.98,1.89 c -0.73,0.02 -0.76,0.18 -0.76,1.27 0,0.7 -0.14,1.27 -0.3,1.27 -0.16,0 -1.15,-0.5 -2.19,-1.11 -1.04,-0.61 -1.98,-1.11 -2.09,-1.11 -0.11,0 -0.16,0.6 -0.1,1.33 0.09,1.27 0.18,1.37 2.31,2.63 2.05,1.2 2.23,1.39 2.32,2.48 0.06,0.73 -0.04,1.18 -0.26,1.18 -0.2,0 -2.18,-1.06 -4.39,-2.34 C 20.47,3.98 21.09,4.17 21.09,5.77 v 1.36 l 3.77,2.17 c 5.35,3.07 5.17,2.9 3.77,3.57 l -1.16,0.55 -1.84,-1.04 C 24.61,11.81 23.17,11 22.43,10.56 L 21.07,9.78 v 2.81 l 2.7,1.5 2.69,1.51 v 1.23 c -1.74,0.64 -3.33,1.57 -4.74,2.73 l -1.12,-0.69 -0.16,-3.1 c -0.16,-3.09 -0.16,-3.11 -1.19,-3.76 l -1.03,-0.65 v 7.67 l -0.94,0.48 c -0.51,0.27 -1.01,0.48 -1.11,0.48 -0.1,0 -0.17,-2.21 -0.17,-4.9 V 10.21 L 14.93,9.54 C 14.34,9.18 13.77,8.89 13.66,8.89 c -0.11,0 -0.2,2.56 -0.2,5.69 v 5.69 L 12.35,19.62 11.24,18.97 V 13.45 L 10.12,12.91 C 9.5,12.62 8.93,12.37 8.85,12.37 c -0.08,0 -0.14,1.16 -0.14,2.57 V 17.5 L 7.56,16.82 C 6.93,16.45 6.38,16.18 6.35,16.23 c -0.03,0.05 -0.29,0.48 -0.59,0.95 -0.3,0.47 -0.54,0.91 -0.54,0.97 0,0.06 0.5,0.36 1.11,0.69 0.61,0.33 1.1,0.68 1.1,0.78 0,0.1 -1.01,0.74 -2.25,1.41 l -2.25,1.23 0.9,0.6 c 1.23,0.81 1.53,0.77 4.04,-0.64 l 2.18,-1.23 1.1,0.64 c 0.6,0.35 0.96,0.74 0.82,0.86 -0.14,0.12 -2.33,1.41 -4.86,2.86 -2.53,1.45 -4.64,2.67 -4.7,2.72 -0.06,0.05 0.44,0.38 1.12,0.73 l 1.24,0.63 3.3,-1.91 c 1.82,-1.05 3.78,-2.18 4.35,-2.53 l 1.03,-0.63 v 2.74 c 0,0 -3.21,1.85 -3.21,1.85 l -3.2,1.85 0.99,0.6 c 0.55,0.33 1.13,0.6 1.31,0.6 0.18,0 1.45,-0.66 2.83,-1.46 l 2.51,-1.45 1.18,0.68 c -0.13,0.83 -0.2,1.67 -0.2,2.53 0,0.96 0.09,1.9 0.25,2.82 l -1.19,0.71 -2.48,-1.44 C 10.87,33.6 9.55,32.95 9.3,32.95 c -0.24,0 -0.85,0.27 -1.35,0.6 l -0.91,0.6 3.21,1.8 3.2,1.82 v 2.76 L 9.05,38.01 4.64,35.48 3.66,36.04 c -0.54,0.31 -0.98,0.66 -0.98,0.77 0,0.11 1.88,1.27 4.19,2.59 5.85,3.34 5.63,3.14 4.27,3.94 L 10.03,43.99 7.64,42.63 5.26,41.27 4.12,41.95 3,42.63 5.21,43.87 c 1.22,0.68 2.22,1.34 2.22,1.45 0,0.11 -0.5,0.47 -1.1,0.8 -1.06,0.57 -1.08,0.61 -0.63,1.48 0.52,1 0.95,1.09 1.85,0.4 C 8.78,47.07 9,47.38 9,50.1 v 2.57 l 1.03,-0.65 c 1.01,-0.64 1.03,-0.71 1.19,-3.42 0.16,-2.73 0.17,-2.78 1.19,-3.37 l 1.03,-0.6 v 11.45 l 1.11,-0.52 1.11,-0.54 v -5.17 c 0,-2.84 0.1,-5.17 0.24,-5.17 0.14,0 0.7,0.28 1.27,0.63 l 1.03,0.64 v 3.64 c 0,2.01 0.08,3.66 0.18,3.66 0.1,0 0.6,-0.25 1.11,-0.55 0.92,-0.54 0.93,-0.56 0.93,-3.6 v -3.07 l 1.44,-0.82 c 1.37,1.1 2.91,1.98 4.58,2.6 v 1.58 l -2.69,1.51 c -2.65,1.49 -2.7,1.53 -2.7,2.72 0,0.67 0.12,1.21 0.25,1.2 0.13,0 1.58,-0.77 3.21,-1.71 l 2.98,-1.71 1.07,0.51 c 0.59,0.28 1.02,0.64 0.97,0.81 -0.05,0.17 -1.98,1.39 -4.28,2.72 l -4.18,2.42 v 2.66 c 0,0 4.88,-2.85 4.88,-2.85 2.69,-1.56 4.97,-2.83 5.07,-2.83 0.1,0 0.18,0.6 0.18,1.35 0,1.34 0,1.36 -2.23,2.57 -2.42,1.32 -2.61,1.55 -2.46,3.02 l 0.09,0.97 2.17,-1.25 c 1.19,-0.69 2.22,-1.25 2.3,-1.25 0.08,0 0.13,0.64 0.13,1.42 0,1.41 0.01,1.42 1.1,1.42 1.09,0 1.09,-0.03 1.19,-1.41 l 0.09,-1.42 2.17,1.27 c 1.19,0.69 2.22,1.25 2.3,1.25 0.08,0 0.13,-0.56 0.13,-1.24 0,-1.22 -0.05,-1.29 -2.38,-2.61 l -2.38,-1.35 v -1.37 c 0,-0.75 0.06,-1.36 0.12,-1.36 0.06,0 2.2,1.21 4.77,2.69 2.57,1.48 4.73,2.7 4.81,2.7 0.08,0 0.14,-0.55 0.14,-1.23 v -1.24 l -3.89,-2.25 c -2.14,-1.24 -4.06,-2.38 -4.3,-2.53 -0.32,-0.21 -0.15,-0.44 0.69,-0.97 l 1.12,-0.71 3.06,1.76 c 1.68,0.97 3.11,1.76 3.19,1.76 0.08,0 0.13,-0.56 0.13,-1.24 0,-1.22 -0.04,-1.27 -2.53,-2.7 l -2.55,-1.46 v -1.7 c 1.61,-0.62 3.08,-1.5 4.4,-2.56 l 1.15,0.67 0.09,3.17 0.09,3.19 1.1,0.52 1.1,0.52 v -7.27 l 1.27,-0.64 1.28,-0.65 v 10.1 l 1.11,0.65 1.1,0.67 v -5.71 c 0,-3.13 0.1,-5.69 0.21,-5.69 0.11,0 0.68,0.3 1.27,0.67 l 1.07,0.65 v 5.35 l 1.03,0.63 1.02,0.63 0.1,-2.53 c 0.05,-1.39 0.19,-2.53 0.31,-2.52 0.12,0 0.58,0.21 1.02,0.46 1.12,0.64 1.44,0.59 1.85,-0.33 0.49,-1.07 0.5,-1.02 -0.59,-1.58 -0.52,-0.27 -0.95,-0.62 -0.95,-0.78 0,-0.16 0.93,-0.8 2.06,-1.44 1.13,-0.63 2.06,-1.2 2.06,-1.25 0,-0.05 -0.47,-0.4 -1.03,-0.76 l -1.03,-0.65 -1.42,0.82 c -0.79,0.45 -1.87,1.07 -2.39,1.38 -0.93,0.56 -0.97,0.56 -2.14,-0.14 l -1.2,-0.73 4.9,-2.81 c 2.69,-1.55 4.82,-2.93 4.74,-3.07 -0.08,-0.14 -0.56,-0.45 -1.06,-0.71 -0.89,-0.46 -1.01,-0.41 -5.04,1.91 -2.27,1.31 -4.27,2.36 -4.45,2.36 -0.18,0 -0.33,-0.53 -0.33,-1.19 0,-1.18 0.03,-1.21 3.32,-3.07 l 3.32,-1.88 -1.18,-0.71 c -1.16,-0.7 -1.21,-0.7 -2.14,-0.13 -0.52,0.32 -1.71,1.02 -2.64,1.57 l -1.7,0.99 -1.35,-0.77 c 0.15,-0.9 0.24,-1.82 0.24,-2.76 0,-0.83 -0.06,-1.65 -0.18,-2.44 l 1.33,-0.74 2.57,1.49 c 2.58,1.49 2.58,1.49 3.66,0.98 0.59,-0.28 1.09,-0.64 1.08,-0.77 0,-0.13 -1.37,-1 -3.04,-1.95 -1.67,-0.95 -3.1,-1.9 -3.19,-2.12 -0.09,-0.22 -0.11,-0.84 -0.05,-1.38 l 0.1,-0.98 4.4,2.53 4.41,2.55 0.95,-0.56 c 0.52,-0.3 0.96,-0.65 0.98,-0.78 0.02,-0.13 -2.01,-1.42 -4.49,-2.86 -2.49,-1.44 -4.55,-2.75 -4.57,-2.93 -0.03,-0.17 0.37,-0.57 0.88,-0.86 0.91,-0.53 0.95,-0.53 3.12,0.73 2.24,1.3 2.92,1.38 4.13,0.5 0.57,-0.42 0.47,-0.52 -1.51,-1.66 -1.17,-0.67 -2.12,-1.33 -2.12,-1.46 0,-0.13 0.43,-0.46 0.95,-0.73 1.09,-0.56 1.14,-0.83 0.43,-1.92 l -0.51,-0.78 -1.03,0.64 c -0.57,0.35 -1.12,0.63 -1.23,0.63 -0.11,0 -0.2,-1.14 -0.2,-2.53 0,-1.39 -0.09,-2.53 -0.2,-2.53 -0.11,0 -0.6,0.25 -1.11,0.55 -0.9,0.53 -0.91,0.59 -0.91,3.25 0,2.66 -0.02,2.73 -0.93,3.26 -0.51,0.3 -1.08,0.55 -1.27,0.55 -0.24,0 -0.35,-1.74 -0.35,-5.55 V 8.9 l -1.1,0.52 -1.11,0.54 v 10.41 l -1.03,-0.65 -1.03,-0.65 -0.09,-3.83 -0.09,-3.81 -1.25,0.64 -1.27,0.64 v 6.28 l -1.11,0.63 c -1.36,-1.13 -2.92,-2.05 -4.6,-2.7 v -1.28 l 2.63,-1.57 c 2.56,-1.52 2.61,-1.58 2.7,-2.89 0.05,-0.73 0.04,-1.33 -0.05,-1.33 -0.09,0 -1.51,0.78 -3.15,1.74 -1.64,0.96 -3.18,1.75 -3.42,1.75 -0.25,0 -0.84,-0.26 -1.32,-0.57 L 34.7,12.2 39.06,9.68 43.41,7.16 43.5,5.81 c 0.05,-0.74 0.04,-1.35 -0.04,-1.35 -0.15,0 -7.15,3.98 -9.01,5.12 l -1.03,0.64 V 8.85 c 0,0 0.01,-1.37 0.01,-1.37 L 35.81,6.12 38.17,4.76 V 1.9 L 35.79,3.3 33.41,4.71 V 3.3 c 0,-1.4 0,-1.41 -1.11,-1.41 -0.14,0 -0.25,0 -0.35,0 z m 0.28,11.71 1.63,0.91 1.62,0.91 v 0.67 c -1.05,-0.22 -2.16,-0.33 -3.29,-0.33 -1.21,0 -2.39,0.13 -3.53,0.38 v -0.51 c 0,0 1.79,-1.02 1.79,-1.02 l 1.78,-1.02 v 0 z m 13.33,18.71 c 0,7.39 -5.99,13.37 -13.37,13.37 -7.38,0 -13.37,-5.99 -13.37,-13.37 m 0.5,-11.37 0.56,0.33 c -1.56,1.74 -2.76,3.81 -3.47,6.1 l -0.43,-0.25 v -2.08 c 0,-1.64 0.11,-2.15 0.55,-2.42 0.31,-0.18 1.07,-0.63 1.68,-1.01 l 1.11,-0.68 z m 25.82,0.29 c 0.22,0 1.09,0.38 1.95,0.86 l 1.54,0.88 v 4.13 l -0.63,0.35 c -0.69,-2.25 -1.86,-4.29 -3.37,-6.02 0.27,-0.13 0.46,-0.2 0.51,-0.2 z m 2.77,16.21 0.73,0.42 v 2.06 c 0,0 -0.01,2.08 -0.01,2.08 l -1.7,0.91 c -0.94,0.51 -1.93,0.84 -2.21,0.73 -0.04,-0.02 -0.21,-0.1 -0.34,-0.17 1.58,-1.72 2.79,-3.77 3.53,-6.03 z m -31.42,0.04 c 0.75,2.28 1.98,4.34 3.58,6.06 L 19.38,43.96 17.7,42.98 16.03,42 v -2.12 c 0,0 -0.01,-2.12 -0.01,-2.12 l 0.51,-0.29 v 0 z m 19.29,10.97 v 0.82 c 0,0 -1.71,1.04 -1.71,1.04 -0.95,0.57 -1.81,1.03 -1.91,1.02 -0.09,0 -0.88,-0.44 -1.75,-0.95 L 28.85,49.45 28.82,48.5 c 1.1,0.23 2.23,0.34 3.4,0.34 1.23,0 2.44,-0.14 3.59,-0.39 z"
       style="fill:#0065bd;fill-opacity:1" />
    <path
       id="path4525-8"
       class="cls-1"
       d="m 31.98,0.85 c -0.73,0.02 -0.75,0.18 -0.75,1.27 0,0.7 -0.14,1.27 -0.3,1.27 -0.16,0 -1.14,-0.49 -2.18,-1.1 -1.04,-0.61 -2,-1.13 -2.11,-1.13 -0.11,0 -0.15,0.61 -0.09,1.34 0.09,1.27 0.19,1.37 2.32,2.62 2.05,1.2 2.23,1.39 2.32,2.48 0.06,0.73 -0.03,1.17 -0.26,1.17 -0.2,0 -2.2,-1.06 -4.41,-2.34 -6.05,-3.51 -5.41,-3.3 -5.41,-1.71 v 1.36 l 3.77,2.16 c 5.35,3.07 5.17,2.9 3.77,3.56 l -1.17,0.56 -1.85,-1.05 C 24.61,10.74 23.18,9.94 22.44,9.51 l -1.36,-0.8 v 2.81 l 2.7,1.5 2.7,1.52 v 1.22 c -1.74,0.64 -3.33,1.59 -4.73,2.74 L 20.63,17.8 20.47,14.71 C 20.31,11.62 20.32,11.61 19.3,10.96 L 18.27,10.3 v 7.66 l -0.96,0.47 c -0.51,0.27 -1.01,0.49 -1.1,0.49 -0.09,0 -0.16,-2.21 -0.16,-4.9 V 9.15 L 14.97,8.47 C 14.38,8.11 13.81,7.81 13.7,7.81 c -0.11,0 -0.19,2.56 -0.19,5.7 v 5.7 l -1.12,-0.66 -1.1,-0.63 V 12.39 L 10.17,11.85 C 9.55,11.56 8.99,11.31 8.9,11.31 c -0.09,0 -0.14,1.17 -0.14,2.58 v 2.55 L 7.61,15.76 C 6.98,15.39 6.42,15.12 6.39,15.17 6.36,15.22 6.1,15.66 5.8,16.13 5.5,16.6 5.26,17.04 5.26,17.09 c 0,0.05 0.49,0.37 1.1,0.7 0.61,0.33 1.1,0.67 1.1,0.77 0,0.1 -1.01,0.73 -2.25,1.41 L 2.98,21.21 3.87,21.8 C 5.1,22.61 5.4,22.57 7.9,21.17 l 2.18,-1.24 1.1,0.66 c 0.6,0.35 0.96,0.74 0.82,0.87 -0.14,0.12 -2.32,1.41 -4.85,2.86 -2.53,1.45 -4.65,2.65 -4.71,2.7 -0.06,0.05 0.45,0.4 1.12,0.75 l 1.24,0.61 3.3,-1.9 c 1.82,-1.05 3.79,-2.18 4.36,-2.53 l 1.03,-0.63 v 1.38 l -0.02,1.36 -3.19,1.85 -3.21,1.85 0.98,0.61 c 0.55,0.33 1.14,0.61 1.31,0.61 0.17,0 1.45,-0.67 2.84,-1.48 l 2.51,-1.45 1.17,0.68 c -0.13,0.83 -0.19,1.69 -0.19,2.55 0,0.96 0.08,1.9 0.23,2.81 l -1.17,0.7 -2.48,-1.43 C 10.9,32.57 9.58,31.91 9.34,31.91 c -0.24,0 -0.86,0.28 -1.36,0.61 l -0.91,0.61 3.21,1.8 3.21,1.8 V 39.5 L 9.08,36.97 4.67,34.44 3.69,35 c -0.54,0.31 -0.98,0.66 -0.98,0.77 0,0.11 1.88,1.26 4.2,2.58 5.85,3.34 5.62,3.14 4.27,3.94 l -1.1,0.66 -2.39,-1.36 -2.39,-1.36 -1.12,0.68 -1.12,0.68 2.2,1.24 c 1.22,0.68 2.23,1.34 2.23,1.45 0,0.11 -0.5,0.47 -1.1,0.8 -1.06,0.57 -1.08,0.61 -0.63,1.48 0.52,1 0.95,1.08 1.85,0.4 1.23,-0.93 1.45,-0.62 1.45,2.11 v 2.58 l 1.03,-0.66 c 1.01,-0.64 1.04,-0.71 1.2,-3.42 0.16,-2.73 0.18,-2.78 1.2,-3.38 l 1.03,-0.59 v 11.44 l 1.1,-0.52 1.1,-0.54 V 48.8 c 0,-2.84 0.1,-5.16 0.23,-5.16 0.13,0 0.72,0.29 1.29,0.63 l 1.03,0.63 v 3.63 c 0,2.01 0.06,3.66 0.16,3.66 0.1,0 0.62,-0.24 1.12,-0.54 0.92,-0.54 0.91,-0.56 0.91,-3.61 v -3.07 l 1.45,-0.82 c 1.37,1.1 2.9,1.98 4.57,2.6 v 1.57 l -2.7,1.52 c -2.65,1.49 -2.7,1.53 -2.7,2.72 0,0.67 0.13,1.2 0.26,1.2 0.13,0 1.57,-0.77 3.21,-1.71 l 2.98,-1.71 1.05,0.52 c 0.59,0.28 1.04,0.66 0.98,0.82 -0.06,0.17 -1.99,1.37 -4.29,2.7 l -4.17,2.41 v 1.34 l -0.02,1.34 4.9,-2.84 c 2.69,-1.56 4.96,-2.84 5.06,-2.84 0.1,0 0.19,0.59 0.19,1.34 0,1.34 0,1.36 -2.23,2.58 -2.42,1.32 -2.61,1.55 -2.46,3.02 l 0.09,0.96 2.16,-1.27 c 1.19,-0.69 2.22,-1.24 2.3,-1.24 0.08,0 0.14,0.64 0.14,1.43 0,1.41 0.02,1.41 1.1,1.41 1.08,0 1.08,-0.02 1.17,-1.41 l 0.09,-1.43 2.18,1.29 c 1.19,0.69 2.22,1.24 2.3,1.24 0.08,0 0.14,-0.56 0.14,-1.24 0,-1.22 -0.06,-1.28 -2.39,-2.6 l -2.37,-1.36 v -1.36 c 0,-0.75 0.06,-1.36 0.12,-1.36 0.06,0 2.19,1.21 4.76,2.7 2.57,1.49 4.73,2.7 4.8,2.7 0.07,0 0.14,-0.54 0.14,-1.22 v -1.24 l -3.89,-2.25 c -2.14,-1.24 -4.06,-2.38 -4.29,-2.53 -0.32,-0.21 -0.16,-0.46 0.68,-0.98 l 1.13,-0.7 3.07,1.78 c 1.68,0.97 3.11,1.76 3.19,1.76 0.08,0 0.12,-0.56 0.12,-1.24 0,-1.22 -0.04,-1.28 -2.53,-2.72 L 38.22,48.4 v -1.69 c 1.61,-0.62 3.07,-1.51 4.38,-2.58 l 1.15,0.68 0.09,3.16 0.09,3.19 1.1,0.54 1.1,0.52 v -7.29 l 1.27,-0.63 1.27,-0.66 v 10.1 l 1.12,0.66 1.1,0.66 v -5.7 c 0,-3.13 0.08,-5.7 0.19,-5.7 0.11,0 0.7,0.29 1.29,0.66 l 1.05,0.66 v 5.37 l 1.03,0.61 1.03,0.63 0.09,-2.53 c 0.05,-1.39 0.2,-2.54 0.33,-2.53 0.12,0 0.57,0.22 1.01,0.47 1.12,0.64 1.43,0.59 1.85,-0.33 0.49,-1.07 0.5,-1.01 -0.59,-1.57 -0.52,-0.27 -0.96,-0.64 -0.96,-0.8 0,-0.16 0.93,-0.8 2.06,-1.43 1.13,-0.63 2.06,-1.21 2.06,-1.27 0,-0.06 -0.47,-0.39 -1.03,-0.75 l -1.03,-0.66 -1.41,0.82 c -0.79,0.45 -1.87,1.07 -2.39,1.38 -0.93,0.56 -0.99,0.57 -2.16,-0.14 l -1.2,-0.73 4.9,-2.81 c 2.69,-1.55 4.82,-2.93 4.73,-3.07 -0.08,-0.14 -0.56,-0.44 -1.05,-0.7 -0.89,-0.46 -1.01,-0.39 -5.04,1.92 -2.27,1.31 -4.27,2.34 -4.45,2.34 -0.18,0 -0.33,-0.52 -0.33,-1.17 0,-1.18 0.04,-1.21 3.33,-3.07 l 3.3,-1.9 -1.17,-0.7 c -1.16,-0.7 -1.2,-0.69 -2.13,-0.12 -0.52,0.32 -1.72,1.03 -2.65,1.57 l -1.69,0.98 -1.36,-0.77 c 0.15,-0.9 0.23,-1.8 0.23,-2.74 0,-0.83 -0.05,-1.66 -0.16,-2.46 l 1.31,-0.73 2.58,1.48 c 2.58,1.49 2.58,1.5 3.66,0.98 0.59,-0.28 1.08,-0.64 1.08,-0.77 0,-0.13 -1.35,-1 -3.02,-1.95 -1.67,-0.94 -3.1,-1.89 -3.19,-2.11 -0.08,-0.22 -0.13,-0.84 -0.07,-1.38 l 0.12,-0.98 4.41,2.53 4.41,2.55 0.96,-0.56 c 0.52,-0.3 0.94,-0.66 0.96,-0.8 0.02,-0.13 -1.99,-1.42 -4.48,-2.86 -2.49,-1.44 -4.54,-2.76 -4.57,-2.93 -0.03,-0.17 0.36,-0.55 0.87,-0.84 0.91,-0.53 0.95,-0.53 3.12,0.73 2.24,1.3 2.91,1.38 4.12,0.49 0.57,-0.42 0.49,-0.52 -1.5,-1.66 -1.17,-0.67 -2.13,-1.32 -2.13,-1.45 0,-0.13 0.44,-0.46 0.96,-0.73 1.09,-0.56 1.13,-0.83 0.42,-1.92 l -0.49,-0.8 -1.03,0.66 c -0.57,0.35 -1.13,0.61 -1.24,0.61 -0.11,0 -0.19,-1.14 -0.19,-2.53 0,-1.39 -0.08,-2.53 -0.19,-2.53 -0.11,0 -0.62,0.26 -1.13,0.56 -0.9,0.53 -0.91,0.57 -0.91,3.23 0,2.66 -0.01,2.75 -0.91,3.28 -0.51,0.3 -1.07,0.54 -1.27,0.54 -0.24,0 -0.35,-1.75 -0.35,-5.55 V 7.85 l -1.1,0.52 -1.13,0.54 V 19.32 L 47.62,18.66 46.59,18 46.5,14.18 l -0.07,-3.82 -1.27,0.66 -1.27,0.63 v 6.28 l -1.1,0.63 C 41.43,17.43 39.88,16.49 38.2,15.84 V 14.57 L 40.83,13 c 2.56,-1.52 2.6,-1.58 2.7,-2.88 0.05,-0.73 0.04,-1.34 -0.05,-1.34 -0.09,0 -1.53,0.78 -3.16,1.73 -1.64,0.96 -3.18,1.76 -3.42,1.76 -0.25,0 -0.84,-0.27 -1.31,-0.59 l -0.87,-0.56 4.36,-2.53 4.36,-2.51 0.09,-1.36 c 0.05,-0.74 0.03,-1.34 -0.05,-1.34 -0.15,0 -7.14,3.97 -9,5.11 L 33.45,9.15 V 6.41 L 35.84,5.05 38.21,3.69 V 0.85 L 35.82,2.26 33.45,3.67 V 2.26 c 0,-1.4 -0.02,-1.41 -1.12,-1.41 -0.14,0 -0.25,0 -0.35,0 z m 0.28,11.72 1.64,0.91 1.62,0.91 v 0.66 c -1.06,-0.22 -2.18,-0.33 -3.3,-0.33 -1.21,0 -2.38,0.13 -3.52,0.38 v -0.49 l 1.78,-1.03 z m -12.92,7.34 0.56,0.33 c -1.56,1.74 -2.75,3.81 -3.47,6.09 l -0.42,-0.26 v -2.06 c 0,-1.64 0.1,-2.15 0.54,-2.41 0.31,-0.18 1.07,-0.63 1.69,-1.01 z m 25.83,0.28 c 0.22,0 1.09,0.39 1.95,0.87 l 1.55,0.87 v 4.12 l -0.63,0.35 c -0.69,-2.25 -1.86,-4.3 -3.38,-6.02 0.27,-0.13 0.46,-0.19 0.52,-0.19 v 0 z m 2.77,16.22 0.73,0.4 v 4.15 l -1.71,0.91 c -0.94,0.51 -1.93,0.83 -2.2,0.73 -0.04,-0.02 -0.19,-0.09 -0.33,-0.16 1.58,-1.72 2.78,-3.75 3.52,-6.02 v 0 z m -31.41,0.02 c 0.75,2.28 1.97,4.35 3.56,6.07 l -0.7,0.42 -1.69,-0.98 -1.69,-0.98 v -4.24 l 0.52,-0.28 z M 35.82,47.4 v 0.82 l -1.71,1.05 c -0.95,0.57 -1.83,1.02 -1.92,1.01 -0.09,0 -0.86,-0.43 -1.73,-0.94 L 28.87,48.4 28.82,47.46 c 1.1,0.23 2.23,0.33 3.4,0.33 1.23,0 2.46,-0.14 3.61,-0.4 v 0 z"
       style="fill:#0065bd;fill-opacity:1" />
  </g>
  <path
     class="cls-2"
     d="m 31.704882,17.85 c -7.31,0 -13.23,5.93 -13.23,13.24 0,7.31 5.92,13.23 13.23,13.23 7.31,0 13.23,-5.93 13.23,-13.23 0,-7.3 -5.92,-13.24 -13.23,-13.24 z m -0.1,0.88 c 3.05,0 6.14,1.22 8.51,3.36 -0.12,2.69 -1.08,5.51 -2.85,8.38 -1.69,-3.83 -3.81,-8.43 -7.62,-11.57 0.63,-0.11 1.29,-0.17 1.96,-0.17 z m -3.48,0.59 c 2.27,1.45 4.24,3.68 5.84,6.65 -2.09,-0.22 -4.14,-0.41 -6.2,-0.41 -2.96,0 -5.4,0.39 -7.63,1.23 1.22,-3.43 4.23,-6.26 7.99,-7.47 z m -5.92,19.65 c -2.36,-2.77 -3.3,-6.8 -2.48,-10.66 2.22,-1.16 4.9,-1.74 7.97,-1.74 0.23,0 0.47,0 0.71,0 -2.46,3.38 -5.39,7.52 -6.2,12.39 z m 9.63,4.52 c -3.05,0 -6.15,-1.23 -8.52,-3.36 0.12,-2.7 1.08,-5.52 2.85,-8.38 1.69,3.82 3.81,8.43 7.63,11.56 -0.64,0.12 -1.3,0.18 -1.96,0.18 z m 3.53,-0.57 c -2.28,-1.45 -4.24,-3.68 -5.84,-6.65 2.09,0.22 4.14,0.41 6.19,0.41 2.97,0 5.41,-0.39 7.64,-1.23 -1.22,3.43 -4.23,6.26 -7.99,7.47 z m 0.37,-7.26 c -0.24,0 -0.48,0 -0.71,-0.01 2.46,-3.38 5.39,-7.52 6.19,-12.39 2.37,2.77 3.31,6.8 2.48,10.66 -2.21,1.15 -4.89,1.74 -7.96,1.74 z"
     id="path1071"
     style="fill:#ffffff;fill-opacity:1" />
</svg>
